<svg id="logo" xmlns="http://www.w3.org/2000/svg" xmlns:xlink="http://www.w3.org/1999/xlink" width="441.938" height="163.625" viewBox="0 0 441.938 163.625">
  <metadata><?xpacket begin="﻿" id="W5M0MpCehiHzreSzNTczkc9d"?>
<x:xmpmeta xmlns:x="adobe:ns:meta/" x:xmptk="Adobe XMP Core 5.6-c142 79.160924, 2017/07/13-01:06:39        ">
   <rdf:RDF xmlns:rdf="http://www.w3.org/1999/02/22-rdf-syntax-ns#">
      <rdf:Description rdf:about=""/>
   </rdf:RDF>
</x:xmpmeta>
                                                                                                    
                                                                                                    
                                                                                                    
                                                                                                    
                                                                                                    
                                                                                                    
                                                                                                    
                                                                                                    
                                                                                                    
                                                                                                    
                                                                                                    
                                                                                                    
                                                                                                    
                                                                                                    
                                                                                                    
                                                                                                    
                                                                                                    
                                                                                                    
                                                                                                    
                                                                                                    
                           
<?xpacket end="w"?></metadata>
<defs>
    <style>
      .cls-1 {
        fill: #daebf6;
        filter: url(#filter);
      }

      .cls-1, .cls-2 {
        fill-rule: evenodd;
      }

      .cls-2 {
        fill: #c6c6c6;
        filter: url(#filter-2);
      }
    </style>
    <filter id="filter" x="-0.188" y="0.375" width="407.844" height="118.625" filterUnits="userSpaceOnUse">
      <feOffset result="offset" dy="2" in="SourceAlpha"/>
      <feGaussianBlur result="blur"/>
      <feFlood result="flood" flood-opacity="0.45"/>
      <feComposite result="composite" operator="in" in2="blur"/>
      <feBlend result="blend" in="SourceGraphic"/>
    </filter>
    <filter id="filter-2" x="117.563" y="132.281" width="324.375" height="31.719" filterUnits="userSpaceOnUse">
      <feOffset result="offset" dy="2" in="SourceAlpha"/>
      <feGaussianBlur result="blur"/>
      <feFlood result="flood" flood-opacity="0.45"/>
      <feComposite result="composite" operator="in" in2="blur"/>
      <feBlend result="blend" in="SourceGraphic"/>
    </filter>
  </defs>
  <path id="skyclerk" class="cls-1" d="M7.463,45.3c0-5.671,2.43-9.953,13.889-9.953A47.832,47.832,0,0,1,38.133,38V31.059c-5.093-2.2-11.226-2.893-16.666-2.893C5.148,28.166-.176,37.078-0.176,45.3c0,7.986,3.472,13.889,20.254,15.393,11.458,0.926,13.078,4.629,13.078,9.953,0,5.44-3.241,10.532-15.277,10.532A51.017,51.017,0,0,1,.518,78.512v6.944c3.7,1.5,11.689,2.893,17.245,2.893,17.592,0,23.263-8.912,23.263-17.824,0-9.49-3.935-15.046-20.37-16.55C9.546,53.049,7.463,50.387,7.463,45.3ZM99.451,29.323H88.572L62.415,55.248V0.389h-7.87v86.8h7.87V64.739l7.292-6.944,22.8,29.4h10.069L74.568,53.165Zm7.731,0,21.991,56.364-13.079,30.439h8.681l33.332-86.8h-9.259l-16.2,47.452-16.2-47.452h-9.259Zm74.4,28.934c0-11,5.208-14.583,12.846-14.583a31.359,31.359,0,0,1,12.847,2.662V30.6c-3.819-1.852-8.333-2.893-14.7-2.893-21.412,0-29.282,10.879-29.282,30.555s7.87,30.555,29.282,30.555c6.365,0,10.879-1.042,14.7-2.893V70.179a31.359,31.359,0,0,1-12.847,2.662C186.787,72.841,181.579,69.253,181.579,58.258Zm58.656,14.467c-3.7,0-4.745-1.273-4.745-3.472V0.389h-18.4V71.8c0,11.227,7.87,16.319,17.823,16.319a31.824,31.824,0,0,0,5.324-.463V72.725Zm57.856-8.333c1.5-18.171-.232-36.689-25-36.689-17.939,0-27.082,9.722-27.082,30.555s9.259,30.555,28.355,30.555a59.394,59.394,0,0,0,21.759-4.051V70.294c-4.167,2.083-10.648,3.819-19.328,3.819-9.028,0-12.963-2.2-12.5-9.722h33.8Zm-24.768-22.8c7.06,0,8.449,5.092,7.407,11.458H264.3C264.3,45.758,267.073,41.591,273.323,41.591Zm70.343-13.078a15.569,15.569,0,0,0-5.208-.81c-8.681,0-14.93,3.009-17.824,5.787l-2.315-4.167h-11.11V87.192h18.518V46.337c1.5-1.389,6.6-3.356,12.268-3.356a29.469,29.469,0,0,1,5.671.463V28.513ZM367.953,0.389H350.014v86.8h17.939V69.253l3.7-3.935,13.426,21.874h22.569L383.462,52.934l22.453-23.61H382.767L367.953,47.841V0.389Z" transform="translate(0 -0.375)"/>
  <path id="making_accounting_a_breeze" data-name="making accounting a breeze" class="cls-2" d="M134.454,153.759h2v-10.3c0-2.862-1.66-4.293-4.723-4.293a8.011,8.011,0,0,0-4.436,1.631c-0.744-1.087-2.089-1.631-4.006-1.631a7.191,7.191,0,0,0-4.179,1.46l-0.429-1.174h-1.116v14.31h2V141.8a7.237,7.237,0,0,1,3.721-.859c1.631,0,2.718.573,2.718,2.433v10.389h2V143.37a6.041,6.041,0,0,0-.172-1.488,7.383,7.383,0,0,1,3.892-.945c1.632,0,2.719.573,2.719,2.433v10.389Zm14.036-9.816v0.8l-3.778.229c-3.749.229-5.094,2.032-5.094,4.465,0,2.4,1.259,4.607,5.008,4.607a7.506,7.506,0,0,0,4.322-1.431l0.429,1.145h1.116v-9.788c0-2.862-1.116-4.808-5.409-4.808a11.523,11.523,0,0,0-4.293.773v1.717a12.558,12.558,0,0,1,4.293-.716C147.746,140.937,148.49,141.853,148.49,143.943Zm0,2.2v4.98a6.928,6.928,0,0,1-3.806,1.145c-2.719,0-3.034-1.546-3.034-2.833,0-1.66.887-2.719,2.919-2.92Zm16.836-6.7h-2.69l-6.468,6.411V132.294h-1.946v21.465h1.946v-5.552l1.8-1.717,5.638,7.269h2.49l-6.926-8.414Zm6.247,14.6v-1.631c-0.887,0-1.2-.286-1.2-1.288V139.449h-1.946V150.9C168.425,153.187,169.512,154.045,171.573,154.045Zm-3.606-18.889a1.431,1.431,0,1,0,1.431-1.431A1.417,1.417,0,0,0,167.967,135.156Zm15.6,18.6h2v-10.3c0-2.748-1.46-4.293-4.866-4.293a7.128,7.128,0,0,0-4.321,1.488l-0.43-1.2h-1.116v14.31h2V141.853a6.875,6.875,0,0,1,3.863-.916c1.775,0,2.862.573,2.862,2.433v10.389Zm10.655-3.835c4.321,0,5.581-2.433,5.581-5.38a5.97,5.97,0,0,0-.83-3.32l2.4-.687v-1.088h-4.866a8.908,8.908,0,0,0-2.289-.286c-4.322,0-5.581,2.433-5.581,5.381,0,2,.572,3.749,2.289,4.693a2.57,2.57,0,0,0-1.087,1.946,2.108,2.108,0,0,0,.916,1.889V153.1a4,4,0,0,0-2.948,3.778c0,3.148,2.4,4.321,6.411,4.321,3.949,0,7.441-1.374,7.441-4.865,0-2.49-1.231-3.549-3.921-3.835l-4.865-.573a1.013,1.013,0,0,1-1.088-1.116,1.659,1.659,0,0,1,.544-1.059A9.2,9.2,0,0,0,194.223,149.924Zm3.119,4.179c1.746,0.2,2.433.772,2.433,2.232,0,2.433-2.69,3.148-5.552,3.148-2.948,0-4.551-.6-4.551-2.719,0-1.831,1.6-2.719,3.492-3.148Zm-3.119-5.925c-3.349,0-3.721-1.746-3.721-3.634s0.372-3.635,3.721-3.635,3.72,1.746,3.72,3.635S197.571,148.178,194.223,148.178Zm22.849-4.235v0.8l-3.778.229c-3.749.229-5.094,2.032-5.094,4.465,0,2.4,1.259,4.607,5.008,4.607a7.506,7.506,0,0,0,4.322-1.431l0.429,1.145h1.116v-9.788c0-2.862-1.116-4.808-5.409-4.808a11.516,11.516,0,0,0-4.293.773v1.717a12.558,12.558,0,0,1,4.293-.716C216.328,140.937,217.072,141.853,217.072,143.943Zm0,2.2v4.98a6.929,6.929,0,0,1-3.807,1.145c-2.718,0-3.033-1.546-3.033-2.833,0-1.66.887-2.719,2.919-2.92Zm5.445,0.458c0,4.121,1.2,7.441,6.039,7.441a11.228,11.228,0,0,0,4.264-.715v-1.717a12.246,12.246,0,0,1-4.293.658c-3.606,0-4.006-2.833-4.006-5.667s0.4-5.667,4.006-5.667a12.243,12.243,0,0,1,4.293.659v-1.717a11.228,11.228,0,0,0-4.264-.716C223.719,139.163,222.517,142.483,222.517,146.6Zm13.172,0c0,4.121,1.2,7.441,6.039,7.441a11.228,11.228,0,0,0,4.264-.715v-1.717a12.246,12.246,0,0,1-4.293.658c-3.606,0-4.006-2.833-4.006-5.667s0.4-5.667,4.006-5.667a12.243,12.243,0,0,1,4.293.659v-1.717a11.228,11.228,0,0,0-4.264-.716C236.891,139.163,235.689,142.483,235.689,146.6Zm25.193,0c0-4.379-1.088-7.441-6.01-7.441-4.894,0-6.011,3.062-6.011,7.441s1.117,7.441,6.011,7.441C259.794,154.045,260.882,150.983,260.882,146.6Zm-2,0c0,3.234-.286,5.667-4.006,5.667-3.778,0-4.007-2.433-4.007-5.667s0.229-5.667,4.007-5.667C258.592,140.937,258.878,143.37,258.878,146.6Zm7.307-7.155h-2v10.3c0,2.748,1.46,4.293,4.866,4.293a7.122,7.122,0,0,0,4.321-1.488l0.43,1.2h1.116v-14.31h-2v11.906a6.875,6.875,0,0,1-3.863.916c-1.775,0-2.862-.573-2.862-2.433V139.449Zm21.186,14.31h2v-10.3c0-2.748-1.46-4.293-4.866-4.293a7.128,7.128,0,0,0-4.321,1.488l-0.43-1.2h-1.116v14.31h2V141.853a6.873,6.873,0,0,1,3.863-.916c1.775,0,2.862.573,2.862,2.433v10.389Zm13.03-1.431c-0.372.029-.744,0.057-1.116,0.057-1.8,0-2.748-.715-2.748-2.461v-8.9h4.436v-1.574h-4.436V134.87l-2,.572v3.864l-2.862.83v0.887h2.862v9.13c0,2.805,2.2,3.892,4.579,3.892a6.333,6.333,0,0,0,1.288-.114v-1.6Zm6.9,1.717v-1.631c-0.887,0-1.2-.286-1.2-1.288V139.449h-1.946V150.9C304.156,153.187,305.244,154.045,307.3,154.045ZM303.7,135.156a1.431,1.431,0,1,0,1.431-1.431A1.417,1.417,0,0,0,303.7,135.156Zm15.6,18.6h2v-10.3c0-2.748-1.46-4.293-4.865-4.293a7.131,7.131,0,0,0-4.322,1.488l-0.429-1.2H310.57v14.31h2V141.853a6.877,6.877,0,0,1,3.864-.916c1.774,0,2.862.573,2.862,2.433v10.389Zm10.654-3.835c4.322,0,5.581-2.433,5.581-5.38a5.97,5.97,0,0,0-.83-3.32l2.4-.687v-1.088h-4.865a8.922,8.922,0,0,0-2.29-.286c-4.322,0-5.581,2.433-5.581,5.381,0,2,.573,3.749,2.29,4.693a2.571,2.571,0,0,0-1.088,1.946,2.108,2.108,0,0,0,.916,1.889V153.1a4,4,0,0,0-2.948,3.778c0,3.148,2.4,4.321,6.411,4.321,3.949,0,7.441-1.374,7.441-4.865,0-2.49-1.231-3.549-3.921-3.835l-4.865-.573a1.014,1.014,0,0,1-1.088-1.116,1.659,1.659,0,0,1,.544-1.059A9.2,9.2,0,0,0,329.954,149.924Zm3.12,4.179c1.745,0.2,2.432.772,2.432,2.232,0,2.433-2.69,3.148-5.552,3.148-2.948,0-4.551-.6-4.551-2.719,0-1.831,1.6-2.719,3.492-3.148Zm-3.12-5.925c-3.349,0-3.721-1.746-3.721-3.634s0.372-3.635,3.721-3.635,3.721,1.746,3.721,3.635S333.3,148.178,329.954,148.178Zm22.849-4.235v0.8l-3.778.229c-3.749.229-5.094,2.032-5.094,4.465,0,2.4,1.259,4.607,5.008,4.607a7.506,7.506,0,0,0,4.322-1.431l0.429,1.145h1.116v-9.788c0-2.862-1.116-4.808-5.409-4.808a11.523,11.523,0,0,0-4.293.773v1.717a12.558,12.558,0,0,1,4.293-.716C352.059,140.937,352.8,141.853,352.8,143.943Zm0,2.2v4.98A6.928,6.928,0,0,1,349,152.271c-2.719,0-3.034-1.546-3.034-2.833,0-1.66.887-2.719,2.919-2.92Zm16.61-6.983a7.472,7.472,0,0,0-4.007,1.173v-8.042h-2v21.465h1.116l0.429-1.173a8.2,8.2,0,0,0,4.465,1.459c4.608,0,5.867-3.32,5.867-7.441S374.021,139.163,369.413,139.163Zm0,1.774c3.434,0,3.863,2.834,3.863,5.667s-0.429,5.667-3.863,5.667a7.549,7.549,0,0,1-4.007-.916v-9.5A7.549,7.549,0,0,1,369.413,140.937Zm17.18-1.631a10.393,10.393,0,0,0-1.717-.143,7.768,7.768,0,0,0-4.608,1.488l-0.43-1.2h-1.116v14.31h2V141.853a7.756,7.756,0,0,1,4.15-.916,5.536,5.536,0,0,1,1.717.229v-1.86Zm2.238,7.3c0,4.121,1.173,7.441,6.01,7.441a11.6,11.6,0,0,0,4.722-.858V151.47a10.937,10.937,0,0,1-4.722.8c-3.234,0-3.893-2.261-4.007-4.751h9.444V146.6c0-4.121-.572-7.441-5.437-7.441C390,139.163,388.831,142.483,388.831,146.6Zm6.01-5.667c3.291,0,3.434,2.4,3.434,4.952h-7.441C390.92,143.313,391.521,140.937,394.841,140.937Zm8.594,5.667c0,4.121,1.173,7.441,6.01,7.441a11.6,11.6,0,0,0,4.722-.858V151.47a10.937,10.937,0,0,1-4.722.8c-3.234,0-3.893-2.261-4.007-4.751h9.444V146.6c0-4.121-.572-7.441-5.437-7.441C404.608,139.163,403.435,142.483,403.435,146.6Zm6.01-5.667c3.291,0,3.434,2.4,3.434,4.952h-7.441C405.524,143.313,406.125,140.937,409.445,140.937Zm19.183,12.822v-1.688h-8.672l8.386-11.334v-1.288H417.9v1.689h7.957l-8.386,11.333v1.288h11.162ZM430.5,146.6c0,4.121,1.173,7.441,6.01,7.441a11.6,11.6,0,0,0,4.722-.858V151.47a10.934,10.934,0,0,1-4.722.8c-3.234,0-3.892-2.261-4.007-4.751h9.445V146.6c0-4.121-.573-7.441-5.438-7.441C431.668,139.163,430.5,142.483,430.5,146.6Zm6.01-5.667c3.291,0,3.434,2.4,3.434,4.952H432.5C432.584,143.313,433.185,140.937,436.505,140.937Z" transform="translate(0 -0.375)"/>
</svg>
