<svg id="upload" xmlns="http://www.w3.org/2000/svg" width="56" height="56" viewBox="0 0 56 56">
  <metadata><?xpacket begin="﻿" id="W5M0MpCehiHzreSzNTczkc9d"?>
<x:xmpmeta xmlns:x="adobe:ns:meta/" x:xmptk="Adobe XMP Core 5.6-c142 79.160924, 2017/07/13-01:06:39        ">
   <rdf:RDF xmlns:rdf="http://www.w3.org/1999/02/22-rdf-syntax-ns#">
      <rdf:Description rdf:about=""/>
   </rdf:RDF>
</x:xmpmeta>
                                                                                                    
                                                                                                    
                                                                                                    
                                                                                                    
                                                                                                    
                                                                                                    
                                                                                                    
                                                                                                    
                                                                                                    
                                                                                                    
                                                                                                    
                                                                                                    
                                                                                                    
                                                                                                    
                                                                                                    
                                                                                                    
                                                                                                    
                                                                                                    
                                                                                                    
                                                                                                    
                           
<?xpacket end="w"?></metadata>
<defs>
    <style>
      .cls-1 {
        fill: #3b5e23;
      }

      .cls-2 {
        fill: #2b3a28;
        fill-rule: evenodd;
      }
    </style>
  </defs>
  <circle id="Circle" class="cls-1" cx="28" cy="28" r="28"/>
  <path id="Receipt" class="cls-2" d="M134.008,120.639a1.607,1.607,0,0,1-1.606,1.607H109.107a1.607,1.607,0,0,1-1.607-1.607V87.684a1.607,1.607,0,0,1,1.607-1.607H132.4a1.606,1.606,0,0,1,1.606,1.607v32.955ZM131.6,90.9a0.8,0.8,0,0,1-.8.8H110.713a0.8,0.8,0,0,1-.8-0.8h0a0.8,0.8,0,0,1,.8-0.8h20.082a0.8,0.8,0,0,1,.8.8h0Zm0,6.025a0.8,0.8,0,0,1-.8.8h-2.811a0.8,0.8,0,0,1-.8-0.8h0a0.8,0.8,0,0,1,.8-0.8h2.811a0.8,0.8,0,0,1,.8.8h0Zm0,3.213a0.8,0.8,0,0,1-.8.8h-2.811a0.8,0.8,0,0,1-.8-0.8h0a0.8,0.8,0,0,1,.8-0.8h2.811a0.8,0.8,0,0,1,.8.8h0Zm0,3.213a0.8,0.8,0,0,1-.8.8h-2.811a0.8,0.8,0,0,1-.8-0.8h0a0.8,0.8,0,0,1,.8-0.8h2.811a0.8,0.8,0,0,1,.8.8h0Zm0,3.213a0.8,0.8,0,0,1-.8.8h-2.811a0.8,0.8,0,0,1-.8-0.8h0a0.8,0.8,0,0,1,.8-0.8h2.811a0.8,0.8,0,0,1,.8.8h0Zm0,3.213a0.8,0.8,0,0,1-.8.8h-2.811a0.8,0.8,0,0,1-.8-0.8h0a0.8,0.8,0,0,1,.8-0.8h2.811a0.8,0.8,0,0,1,.8.8h0Zm0,3.213a0.8,0.8,0,0,1-.8.8h-2.811a0.8,0.8,0,0,1-.8-0.8h0a0.8,0.8,0,0,1,.8-0.8h2.811a0.8,0.8,0,0,1,.8.8h0Zm0,3.213a0.8,0.8,0,0,1-.8.8h-2.811a0.8,0.8,0,0,1-.8-0.8h0a0.8,0.8,0,0,1,.8-0.8h2.811a0.8,0.8,0,0,1,.8.8h0Zm-7.229-19.278a0.8,0.8,0,0,1-.8.8H111.115a0.8,0.8,0,0,1-.8-0.8h0a0.8,0.8,0,0,1,.8-0.8h12.451a0.8,0.8,0,0,1,.8.8h0Zm-3.213,3.213a0.8,0.8,0,0,1-.8.8h-9.238a0.8,0.8,0,0,1-.8-0.8h0a0.8,0.8,0,0,1,.8-0.8h9.238a0.8,0.8,0,0,1,.8.8h0Zm4.418,3.213a0.8,0.8,0,0,1-.8.8H111.115a0.8,0.8,0,0,1-.8-0.8h0a0.8,0.8,0,0,1,.8-0.8h13.656a0.8,0.8,0,0,1,.8.8h0Zm-6.426,3.213a0.8,0.8,0,0,1-.8.8h-7.229a0.8,0.8,0,0,1-.8-0.8h0a0.8,0.8,0,0,1,.8-0.8h7.229a0.8,0.8,0,0,1,.8.8h0Zm3.213,3.213a0.8,0.8,0,0,1-.8.8H111.115a0.8,0.8,0,0,1-.8-0.8h0a0.8,0.8,0,0,1,.8-0.8h10.442a0.8,0.8,0,0,1,.8.8h0Zm2.811,3.213a0.8,0.8,0,0,1-.8.8H111.115a0.8,0.8,0,0,1-.8-0.8h0a0.8,0.8,0,0,1,.8-0.8h13.254a0.8,0.8,0,0,1,.8.8h0Zm-4.016,3.213a0.8,0.8,0,0,1-.8.8h-9.238a0.8,0.8,0,0,1-.8-0.8h0a0.8,0.8,0,0,1,.8-0.8h9.238a0.8,0.8,0,0,1,.8.8h0Z" transform="translate(-93 -76)"/>
</svg>
