<svg id="logo-small" xmlns="http://www.w3.org/2000/svg" xmlns:xlink="http://www.w3.org/1999/xlink" width="101.907" height="30.844" viewBox="0 0 101.907 30.844">
  <metadata><?xpacket begin="﻿" id="W5M0MpCehiHzreSzNTczkc9d"?>
<x:xmpmeta xmlns:x="adobe:ns:meta/" x:xmptk="Adobe XMP Core 5.6-c142 79.160924, 2017/07/13-01:06:39        ">
   <rdf:RDF xmlns:rdf="http://www.w3.org/1999/02/22-rdf-syntax-ns#">
      <rdf:Description rdf:about=""/>
   </rdf:RDF>
</x:xmpmeta>
                                                                                                    
                                                                                                    
                                                                                                    
                                                                                                    
                                                                                                    
                                                                                                    
                                                                                                    
                                                                                                    
                                                                                                    
                                                                                                    
                                                                                                    
                                                                                                    
                                                                                                    
                                                                                                    
                                                                                                    
                                                                                                    
                                                                                                    
                                                                                                    
                                                                                                    
                                                                                                    
                           
<?xpacket end="w"?></metadata>
<defs>
    <style>
      .cls-1 {
        fill: #daebf6;
        fill-rule: evenodd;
        filter: url(#filter);
      }
    </style>
    <filter id="filter" x="497.906" y="902.156" width="101.907" height="30.844" filterUnits="userSpaceOnUse">
      <feOffset result="offset" dy="2" in="SourceAlpha"/>
      <feGaussianBlur result="blur"/>
      <feFlood result="flood" flood-opacity="0.45"/>
      <feComposite result="composite" operator="in" in2="blur"/>
      <feBlend result="blend" in="SourceGraphic"/>
    </filter>
  </defs>
  <path id="skyClerk" class="cls-1" d="M499.765,913.378c0-1.369.587-2.4,3.354-2.4a11.551,11.551,0,0,1,4.052.642V909.94a10.441,10.441,0,0,0-4.024-.7c-3.941,0-5.226,2.152-5.226,4.136,0,1.928.838,3.354,4.891,3.717,2.766,0.224,3.158,1.118,3.158,2.4,0,1.313-.783,2.543-3.689,2.543a12.309,12.309,0,0,1-4.193-.643v1.677a13.782,13.782,0,0,0,4.165.7c4.248,0,5.617-2.152,5.617-4.3,0-2.292-.95-3.634-4.919-4C500.268,915.251,499.765,914.608,499.765,913.378Zm22.213-3.857h-2.627l-6.316,6.261V902.534h-1.9V923.5h1.9v-5.422L514.8,916.4l5.506,7.1h2.431l-6.763-8.216Zm1.867,0,5.31,13.611L526,930.482h2.1l8.049-20.961h-2.236l-3.912,11.459-3.913-11.459h-2.236Zm14,3.494c0.028,7.881,2.934,10.871,9.055,10.871a10.14,10.14,0,0,0,4.36-.782v-4.22a9.3,9.3,0,0,1-3.913.81c-3.41,0-4.975-1.369-4.975-6.679s1.565-6.68,4.975-6.68a9.3,9.3,0,0,1,3.913.811v-4.22a10.12,10.12,0,0,0-4.36-.783C540.776,902.143,537.87,905.133,537.842,913.015ZM559.383,920c-0.894,0-1.146-.308-1.146-0.839V902.534h-4.444v17.244c0,2.711,1.9,3.941,4.3,3.941a7.675,7.675,0,0,0,1.286-.112V920Zm13.97-2.013c0.364-4.387-.055-8.859-6.036-8.859-4.332,0-6.54,2.348-6.54,7.378s2.236,7.378,6.847,7.378a14.336,14.336,0,0,0,5.254-.978v-3.493a10.592,10.592,0,0,1-4.667.922c-2.18,0-3.13-.531-3.018-2.348h8.16Zm-5.98-5.5c1.7,0,2.04,1.229,1.788,2.767h-3.968C565.193,913.49,565.863,912.484,567.373,912.484Zm16.986-3.158a3.757,3.757,0,0,0-1.258-.2,6.381,6.381,0,0,0-4.3,1.4l-0.559-1.006h-2.683V923.5h4.472V913.63a5.2,5.2,0,0,1,2.962-.811,7.113,7.113,0,0,1,1.37.112v-3.605Zm5.865-6.792h-4.332V923.5h4.332v-4.332l0.894-.95,3.242,5.282h5.45l-5.841-8.272,5.421-5.7H593.8l-3.577,4.472V902.534Z" transform="translate(-497.906 -902.156)"/>
</svg>
